<svg version="1.1" baseProfile="full" xmlns="http://www.w3.org/2000/svg" xmlns:xlink="http://www.w3.org/1999/xlink" style="width:100%;height:100%" id="react-sketch-canvas" viewBox="0 0 300 300" width="300" height="300"><g id="react-sketch-canvas__eraser-stroke-group" display="none"><rect id="react-sketch-canvas__mask-background" x="0" y="0" width="100%" height="100%" fill="none"></rect></g><defs></defs><g id="react-sketch-canvas__canvas-background-group"><rect id="react-sketch-canvas__canvas-background" x="0" y="0" width="100%" height="100%" fill="none"></rect></g><g id="react-sketch-canvas__stroke-group-0" mask="url(#react-sketch-canvas__eraser-mask-0)"><path id="react-sketch-canvas__0" d="M 104.5,177 C 104.3,177 104.3,177.8 103.5, 177 C 102.7,176.2 101.7,175.8 100.5, 173 C 99.3,170.2 99.3,168.6 97.5, 163 C 95.7,157.4 93.1,153.2 91.5, 145 C 89.9,136.8 89.9,131.4 89.5, 122 C 89.1,112.6 89.3,106.6 89.5, 98 C 89.7,89.4 89.7,85.2 90.5, 79 C 91.3,72.8 92.1,70.6 93.5, 67 C 94.9,63.4 95.9,63 97.5, 61 C 99.1,59 100.5,58.2 101.5, 57 C 102.5,55.8 102.1,55.4 102.5, 55 C 102.9,54.6 103.1,55.2 103.5, 55 C 103.9,54.8 103.7,54.2 104.5, 54 C 105.3,53.8 106.3,54 107.5, 54 C 108.7,54 109.3,54.2 110.5, 54 C 111.7,53.8 112.1,53.4 113.5, 53 C 114.9,52.6 116.3,52.2 117.5, 52 C 118.7,51.8 118.3,52.2 119.5, 52 C 120.7,51.8 122.3,51.2 123.5, 51 C 124.7,50.8 124.9,51 125.5, 51 C 126.1,51 125.5,51 126.5, 51 C 127.5,51 129.3,51 130.5, 51 C 131.7,51 131.7,51 132.5, 51 C 133.3,51 133.3,51 134.5, 51 C 135.7,51 137.1,51 138.5, 51 C 139.9,51 139.1,51 141.5, 51 C 143.9,51 146.9,51 150.5, 51 C 154.1,51 156.7,51 159.5, 51 C 162.3,51 162.3,50.8 164.5, 51 C 166.7,51.2 168.9,51.6 170.5, 52 C 172.1,52.4 170.9,52.6 172.5, 53 C 174.1,53.4 175.9,53 178.5, 54 C 181.1,55 182.9,56.6 185.5, 58 C 188.1,59.4 189.7,60.2 191.5, 61 C 193.3,61.8 193.3,61.2 194.5, 62 C 195.7,62.8 196.5,64 197.5, 65 C 198.5,66 198.3,65.4 199.5, 67 C 200.7,68.6 202.1,70.6 203.5, 73 C 204.9,75.4 205.7,77.4 206.5, 79 C 207.3,80.6 206.9,79.6 207.5, 81 C 208.1,82.4 208.5,84 209.5, 86 C 210.5,88 211.7,89 212.5, 91 C 213.3,93 212.5,93.4 213.5, 96 C 214.5,98.6 216.3,100.6 217.5, 104 C 218.7,107.4 218.5,110 219.5, 113 C 220.5,116 221.7,116.4 222.5, 119 C 223.3,121.6 222.9,123.4 223.5, 126 C 224.1,128.6 225.1,130 225.5, 132 C 225.9,134 225.1,133.4 225.5, 136 C 225.9,138.6 226.9,142.2 227.5, 145 C 228.1,147.8 228.3,147.8 228.5, 150 C 228.7,152.2 228.5,154 228.5, 156 C 228.5,158 228.5,158.2 228.5, 160 C 228.5,161.8 228.9,163.2 228.5, 165 C 228.1,166.8 227.1,167.4 226.5, 169 C 225.9,170.6 226.3,171.6 225.5, 173 C 224.7,174.4 223.9,174.6 222.5, 176 C 221.1,177.4 220.5,178 218.5, 180 C 216.5,182 214.9,183.2 212.5, 186 C 210.1,188.8 210.1,191.2 206.5, 194 C 202.9,196.8 199.5,197.4 194.5, 200 C 189.5,202.6 185.9,205.2 181.5, 207 C 177.1,208.8 175.3,208.2 172.5, 209 C 169.7,209.8 169.7,210 167.5, 211 C 165.3,212 163.9,213.2 161.5, 214 C 159.1,214.8 158.1,214.4 155.5, 215 C 152.9,215.6 150.7,216.2 148.5, 217 C 146.3,217.8 146.1,218.6 144.5, 219 C 142.9,219.4 142.3,218.8 140.5, 219 C 138.7,219.2 137.3,219.8 135.5, 220 C 133.7,220.2 133.1,219.8 131.5, 220 C 129.9,220.2 129.3,220.8 127.5, 221 C 125.7,221.2 124.5,221 122.5, 221 C 120.5,221 119.7,221 117.5, 221 C 115.3,221 113.3,221 111.5, 221 C 109.7,221 109.9,221 108.5, 221 C 107.1,221 105.9,221 104.5, 221 C 103.1,221 102.5,221.2 101.5, 221 C 100.5,220.8 100.3,220.4 99.5, 220 C 98.7,219.6 98.1,219.2 97.5, 219 C 96.9,218.8 97.3,219.4 96.5, 219 C 95.7,218.6 94.5,217.4 93.5, 217 C 92.5,216.6 92.1,217.4 91.5, 217 C 90.9,216.6 91.3,215.6 90.5, 215 C 89.7,214.4 88.9,214.8 87.5, 214 C 86.1,213.2 84.9,212 83.5, 211 C 82.1,210 82.3,210 80.5, 209 C 78.7,208 76.7,207.2 74.5, 206 C 72.3,204.8 71.5,203.6 69.5, 203 C 67.5,202.4 65.9,203.4 64.5, 203 C 63.1,202.6 63.5,202 62.5, 201 C 61.5,200 60.5,199 59.5, 198 C 58.5,197 58.1,196.4 57.5, 196 C 56.9,195.6 57.1,196.2 56.5, 196 C 55.9,195.8 55.1,195.2 54.5, 195 C 53.9,194.8 53.9,195 53.5, 195 C 53.1,195 53.1,195 52.5, 195 C 51.9,195 51.3,195 50.5, 195 C 49.7,195 49.5,195 48.5, 195 C 47.5,195 46.7,195 45.5, 195 C 44.3,195 43.7,195 42.5, 195 C 41.3,195 40.5,194.6 39.5, 195 C 38.5,195.4 38.3,196.6 37.5, 197 C 36.7,197.4 36.1,196.8 35.5, 197 C 34.9,197.2 34.9,197.8 34.5, 198 C 34.1,198.2 33.9,197.8 33.5, 198 C 33.1,198.2 32.9,198.4 32.5, 199 C 32.1,199.6 31.7,200.4 31.5, 201 C 31.3,201.6 31.5,201.4 31.5, 202 C 31.5,202.6 31.5,203.2 31.5, 204 C 31.5,204.8 31.5,205.4 31.5, 206 C 31.5,206.6 31.3,206.4 31.5, 207 C 31.7,207.6 32.1,208.2 32.5, 209 C 32.9,209.8 32.9,210.4 33.5, 211 C 34.1,211.6 34.9,211.4 35.5, 212 C 36.1,212.6 35.9,213.4 36.5, 214 C 37.1,214.6 38.1,214.4 38.5, 215 C 38.9,215.6 38.5,216.4 38.5, 217 C 38.5,217.6 38.1,217.4 38.5, 218 C 38.9,218.6 39.9,218.8 40.5, 220 C 41.1,221.2 40.9,222.8 41.5, 224 C 42.1,225.2 43.1,225.2 43.5, 226 C 43.9,226.8 43.3,227.6 43.5, 228 C 43.7,228.4 44.1,227.6 44.5, 228 C 44.9,228.4 44.7,229 45.5, 230 C 46.3,231 47.7,232 48.5, 233 C 49.3,234 49.1,234.4 49.5, 235 C 49.9,235.6 50.1,235.6 50.5, 236 C 50.9,236.4 50.7,236.4 51.5, 237 C 52.3,237.6 53.7,238.6 54.5, 239 C 55.3,239.4 55.3,238.8 55.5, 239 C 55.7,239.2 55.1,239.8 55.5, 240 C 55.9,240.2 56.9,239.8 57.5, 240 C 58.1,240.2 58.1,240.8 58.5, 241 C 58.9,241.2 58.9,240.8 59.5, 241 C 60.1,241.2 60.1,241.2 61.5, 242 C 62.9,242.8 63.1,243.4 66.5, 245 C 69.9,246.6 73.9,248.2 78.5, 250 C 83.1,251.8 85.5,252.4 89.5, 254 C 93.5,255.6 94.9,256.8 98.5, 258 C 102.1,259.2 104.9,259.4 107.5, 260 C 110.1,260.6 109.7,260.4 111.5, 261 C 113.3,261.6 115.1,262.4 116.5, 263 C 117.9,263.6 117.1,263.8 118.5, 264 C 119.9,264.2 121.7,263.6 123.5, 264 C 125.3,264.4 125.7,265.6 127.5, 266 C 129.3,266.4 130.3,266 132.5, 266 C 134.7,266 135.3,266 138.5, 266 C 141.7,266 144.5,266 148.5, 266 C 152.5,266 154.9,266 158.5, 266 C 162.1,266 163.7,266.4 166.5, 266 C 169.3,265.6 170.1,264.4 172.5, 264 C 174.9,263.6 176.9,264.4 178.5, 264 C 180.1,263.6 178.9,262.6 180.5, 262 C 182.1,261.4 184.7,261.6 186.5, 261 C 188.3,260.4 188.3,259.6 189.5, 259 C 190.7,258.4 191.3,258.4 192.5, 258 C 193.7,257.6 194.5,257.6 195.5, 257 C 196.5,256.4 196.1,255.8 197.5, 255 C 198.9,254.2 201.1,253.4 202.5, 253 C 203.9,252.6 203.1,253.4 204.5, 253 C 205.9,252.6 208.3,251.8 209.5, 251 C 210.7,250.2 210.1,249.4 210.5, 249 C 210.9,248.6 210.3,249.4 211.5, 249 C 212.7,248.6 215.3,247.8 216.5, 247 C 217.7,246.2 216.9,245.6 217.5, 245 C 218.1,244.4 218.9,244.6 219.5, 244 C 220.1,243.4 219.9,243 220.5, 242 C 221.1,241 221.9,240.2 222.5, 239 C 223.1,237.8 222.7,237 223.5, 236 C 224.3,235 225.7,234.8 226.5, 234 C 227.3,233.2 226.7,233 227.5, 232 C 228.3,231 229.5,230.8 230.5, 229 C 231.5,227.2 230.9,225.6 232.5, 223 C 234.1,220.4 237.1,218.2 238.5, 216 C 239.9,213.8 238.3,214 239.5, 212 C 240.7,210 243.1,208 244.5, 206 C 245.9,204 245.5,204 246.5, 202 C 247.5,200 248.7,198.4 249.5, 196 C 250.3,193.6 249.7,192.6 250.5, 190 C 251.3,187.4 252.5,185.2 253.5, 183 C 254.5,180.8 254.5,180.8 255.5, 179 C 256.5,177.2 257.5,176 258.5, 174 C 259.5,172 259.5,171.4 260.5, 169 C 261.5,166.6 261.9,165.8 263.5, 162 C 265.1,158.2 266.9,154 268.5, 150 C 270.1,146 270.1,145.4 271.5, 142 C 272.9,138.6 274.7,136.2 275.5, 133 C 276.3,129.8 275.3,128.4 275.5, 126 C 275.7,123.6 276.3,123.6 276.5, 121 C 276.7,118.4 276.1,115.8 276.5, 113 C 276.9,110.2 278.1,110 278.5, 107 C 278.9,104 278.5,101.2 278.5, 98 C 278.5,94.8 278.5,93.8 278.5, 91 C 278.5,88.2 278.5,87.2 278.5, 84 C 278.5,80.8 278.7,78.2 278.5, 75 C 278.3,71.8 278.3,71.6 277.5, 68 C 276.7,64.4 275.3,60.4 274.5, 57 C 273.7,53.6 274.1,53.4 273.5, 51 C 272.9,48.6 272.3,47 271.5, 45 C 270.7,43 270.3,43 269.5, 41 C 268.7,39 268.3,36.6 267.5, 35 C 266.7,33.4 266.3,34 265.5, 33 C 264.7,32 264.5,31.2 263.5, 30 C 262.5,28.8 261.3,27.8 260.5, 27 C 259.7,26.2 260.1,26.6 259.5, 26 C 258.9,25.4 258.5,24.6 257.5, 24 C 256.5,23.4 255.3,23.6 254.5, 23 C 253.7,22.4 254.3,21.6 253.5, 21 C 252.7,20.4 251.5,20.6 250.5, 20 C 249.5,19.4 249.5,18.6 248.5, 18 C 247.5,17.4 246.3,17.4 245.5, 17 C 244.7,16.6 245.3,16.6 244.5, 16 C 243.7,15.4 242.3,14.4 241.5, 14 C 240.7,13.6 241.1,14 240.5, 14 C 239.9,14 239.1,14 238.5, 14 C 237.9,14 238.1,14.2 237.5, 14 C 236.9,13.8 236.1,13.2 235.5, 13 C 234.9,12.8 235.3,13.2 234.5, 13 C 233.7,12.8 232.3,12.2 231.5, 12 C 230.7,11.8 231.1,12 230.5, 12 C 229.9,12 229.1,12 228.5, 12 C 227.9,12 228.3,12 227.5, 12 C 226.7,12 225.3,12 224.5, 12 C 223.7,12 224.3,12 223.5, 12 C 222.7,12 221.3,12 220.5, 12 C 219.7,12 220.5,12 219.5, 12 C 218.5,12 216.9,12 215.5, 12 C 214.1,12 213.7,12 212.5, 12 C 211.3,12 210.3,12 209.5, 12 C 208.7,12 208.9,12 208.5, 12 C 208.1,12 207.9,12 207.5, 12 C 207.1,12 207.3,12 206.5, 12 C 205.7,12 204.5,11.8 203.5, 12 C 202.5,12.2 202.1,12.8 201.5, 13 C 200.9,13.2 200.9,13 200.5, 13 C 200.1,13 199.9,12.6 199.5, 13 C 199.1,13.4 199.3,14.4 198.5, 15 C 197.7,15.6 196.7,15.6 195.5, 16 C 194.3,16.4 193.9,16.8 192.5, 17 C 191.1,17.2 190.1,16.599999999999998 188.5, 17 C 186.9,17.4 186.3,18.4 184.5, 19 C 182.7,19.6 181.1,19.599999999999998 179.5, 20 C 177.9,20.4 177.7,20.8 176.5, 21 C 175.3,21.2 175.5,20.4 173.5, 21 C 171.5,21.6 168.5,23.4 166.5, 24 C 164.5,24.6 164.7,23.6 163.5, 24 C 162.3,24.4 161.9,25.599999999999998 160.5, 26 C 159.1,26.4 158.1,26 156.5, 26 C 154.9,26 153.9,26 152.5, 26 C 151.1,26 151.1,26 149.5, 26 C 147.9,26 146.1,26 144.5, 26 C 142.9,26 142.3,26 141.5, 26 C 140.7,26 141.5,26 140.5, 26 C 139.5,26 137.3,26.2 136.5, 26 C 135.7,25.8 137.7,25.4 136.5, 25 C 135.3,24.6 132.3,24.4 130.5, 24 C 128.7,23.6 128.9,23.4 127.5, 23 C 126.1,22.6 125.1,22.2 123.5, 22 C 121.9,21.8 120.3,22 119.5, 22" fill="none" stroke-linecap="round" stroke="black" stroke-width="15"></path></g></svg>