<svg version="1.1"
     baseProfile="full"
     xmlns="http://www.w3.org/2000/svg"
     xmlns:xlink="http://www.w3.org/1999/xlink"
     style="width:100%;height:100%"
     id="react-sketch-canvas"
     viewBox="0 0 594 420"
     width="297"
     height="210">
	<g id="react-sketch-canvas__stroke-group-0"
	   mask="url(#react-sketch-canvas__eraser-mask-0)">
		<path id="react-sketch-canvas__0"
		      d="M 27.5,32 C 27.5,32.6 27.5,33.8 27.5, 35 C 27.5,36.2 27.5,37.2 27.5, 38 C 27.5,38.8 27.5,38.2 27.5, 39 C 27.5,39.8 27.3,40.8 27.5, 42 C 27.7,43.2 28.3,43.8 28.5, 45 C 28.7,46.2 28.5,46.4 28.5, 48 C 28.5,49.6 28.5,50.8 28.5, 53 C 28.5,55.2 28.3,56.8 28.5, 59 C 28.7,61.2 29.3,61.8 29.5, 64 C 29.7,66.2 29.1,67.8 29.5, 70 C 29.9,72.2 31.1,72.4 31.5, 75 C 31.9,77.6 31.5,80.2 31.5, 83 C 31.5,85.8 31.5,86.8 31.5, 89 C 31.5,91.2 31.5,92.4 31.5, 94 C 31.5,95.6 31.5,96 31.5, 97 C 31.5,98 31.5,98 31.5, 99 C 31.5,100 31.5,100.8 31.5, 102 C 31.5,103.2 31.5,104.2 31.5, 105 C 31.5,105.8 31.5,105.6 31.5, 106 C 31.5,106.4 31.5,106.6 31.5, 107 C 31.5,107.4 31.5,107.8 31.5, 108"
		      fill="none"
		      stroke-linecap="round"
		      stroke="black"
		      stroke-width="2"/>
		<path id="react-sketch-canvas__1"
		      d="M 27.5,35 C 27.5,34.8 27.3,34 27.5, 34 C 27.7,34 28.1,34.8 28.5, 35 C 28.9,35.2 28.7,34.8 29.5, 35 C 30.3,35.2 31.5,35.6 32.5, 36 C 33.5,36.4 33.1,36.2 34.5, 37 C 35.9,37.8 37.9,39.4 39.5, 40 C 41.1,40.6 41.3,39.8 42.5, 40 C 43.7,40.2 44.1,40.2 45.5, 41 C 46.9,41.8 47.7,43.2 49.5, 44 C 51.3,44.8 52.9,44.4 54.5, 45 C 56.1,45.6 56.3,46.6 57.5, 47 C 58.7,47.4 59.3,47 60.5, 47 C 61.7,47 62.3,46.8 63.5, 47 C 64.7,47.2 65.3,47.8 66.5, 48 C 67.7,48.2 68.7,48 69.5, 48 C 70.3,48 69.9,48 70.5, 48 C 71.1,48 71.9,47.6 72.5, 48 C 73.1,48.4 72.7,49.6 73.5, 50 C 74.3,50.4 75.7,50 76.5, 50 C 77.3,50 76.9,50 77.5, 50 C 78.1,50 78.9,50 79.5, 50 C 80.1,50 80.1,50 80.5, 50 C 80.9,50 80.3,50 81.5, 50 C 82.7,50 84.9,50 86.5, 50 C 88.1,50 88.3,50 89.5, 50 C 90.7,50 91.3,50 92.5, 50 C 93.7,50 94.3,50.4 95.5, 50 C 96.7,49.6 97.3,48.6 98.5, 48 C 99.7,47.4 100.7,47.4 101.5, 47 C 102.3,46.6 101.9,46.2 102.5, 46 C 103.1,45.8 103.7,46.2 104.5, 46 C 105.3,45.8 105.9,45.2 106.5, 45 C 107.1,44.8 107.3,45 107.5, 45"
		      fill="none"
		      stroke-linecap="round"
		      stroke="black"
		      stroke-width="2"/>
		<path id="react-sketch-canvas__2"
		      d="M 452.5,390 C 453.3,390 455.1,390 456.5, 390 C 457.9,390 457.9,390 459.5, 390 C 461.1,390 462.5,390 464.5, 390 C 466.5,390 466.9,390 469.5, 390 C 472.1,390 475.3,390 477.5, 390 C 479.7,390 479.3,390 480.5, 390 C 481.7,390 482.3,390 483.5, 390 C 484.7,390 485.3,390 486.5, 390 C 487.7,390 488.5,390 489.5, 390 C 490.5,390 490.3,389.6 491.5, 390 C 492.7,390.4 493.9,391.4 495.5, 392 C 497.1,392.6 498.3,392.8 499.5, 393 C 500.7,393.2 500.9,393 501.5, 393 C 502.1,393 502.1,393 502.5, 393 C 502.9,393 502.9,392.6 503.5, 393 C 504.1,393.4 504.9,394.6 505.5, 395 C 506.1,395.4 505.9,394.8 506.5, 395 C 507.1,395.2 507.7,395.8 508.5, 396 C 509.3,396.2 509.9,396 510.5, 396 C 511.1,396 510.7,395.6 511.5, 396 C 512.3,396.4 513.7,397.6 514.5, 398 C 515.3,398.4 514.9,397.8 515.5, 398 C 516.1,398.2 516.9,398.8 517.5, 399 C 518.1,399.2 518.1,399 518.5, 399 C 518.9,399 518.9,399 519.5, 399 C 520.1,399 520.9,399 521.5, 399 C 522.1,399 522.1,399 522.5, 399 C 522.9,399 523.1,399 523.5, 399 C 523.9,399 523.9,399 524.5, 399 C 525.1,399 525.9,399 526.5, 399 C 527.1,399 527.1,399 527.5, 399 C 527.9,399 527.9,399 528.5, 399 C 529.1,399 529.9,399 530.5, 399 C 531.1,399 531.1,399 531.5, 399 C 531.9,399 532.1,399 532.5, 399 C 532.9,399 532.9,399 533.5, 399 C 534.1,399 534.9,399 535.5, 399 C 536.1,399 536.1,399 536.5, 399 C 536.9,399 536.9,399 537.5, 399 C 538.1,399 538.9,399 539.5, 399 C 540.1,399 540.1,399 540.5, 399 C 540.9,399 541.1,399 541.5, 399 C 541.9,399 542.1,399 542.5, 399 C 542.9,399 542.9,399 543.5, 399 C 544.1,399 544.9,399 545.5, 399 C 546.1,399 546.1,399 546.5, 399 C 546.9,399 546.9,399 547.5, 399 C 548.1,399 548.9,399 549.5, 399 C 550.1,399 550.1,399 550.5, 399 C 550.9,399 551.1,399 551.5, 399 C 551.9,399 552.1,399.2 552.5, 399 C 552.9,398.8 553.3,398.4 553.5, 398 C 553.7,397.6 553.1,397.8 553.5, 397 C 553.9,396.2 555.1,395.8 555.5, 394 C 555.9,392.2 555.5,390.2 555.5, 388 C 555.5,385.8 555.1,385.2 555.5, 383 C 555.9,380.8 557.1,379.2 557.5, 377 C 557.9,374.8 557.5,374.4 557.5, 372 C 557.5,369.6 557.5,367.6 557.5, 365 C 557.5,362.4 557.5,361 557.5, 359 C 557.5,357 557.5,357 557.5, 355 C 557.5,353 557.5,351.2 557.5, 349 C 557.5,346.8 557.5,346 557.5, 344 C 557.5,342 557.5,341 557.5, 339 C 557.5,337 557.5,335.6 557.5, 334 C 557.5,332.4 557.5,332.2 557.5, 331 C 557.5,329.8 557.5,329.2 557.5, 328 C 557.5,326.8 557.5,326.2 557.5, 325 C 557.5,323.8 557.3,323.4 557.5, 322 C 557.7,320.6 558.3,319.4 558.5, 318 C 558.7,316.6 558.5,316 558.5, 315 C 558.5,314 558.5,313.8 558.5, 313 C 558.5,312.2 558.1,312 558.5, 311 C 558.9,310 560.1,309.2 560.5, 308 C 560.9,306.8 560.5,306.2 560.5, 305 C 560.5,303.8 560.5,302.8 560.5, 302 C 560.5,301.2 560.5,301.6 560.5, 301 C 560.5,300.4 560.5,299.6 560.5, 299 C 560.5,298.4 560.5,298.4 560.5, 298 C 560.5,297.6 560.5,297.4 560.5, 297 C 560.5,296.6 560.5,296.6 560.5, 296 C 560.5,295.4 560.3,294.6 560.5, 294 C 560.7,293.4 561.3,293.2 561.5, 293"
		      fill="none"
		      stroke-linecap="round"
		      stroke="black"
		      stroke-width="2"/>
		<path id="react-sketch-canvas__3"
		      d="M 473.5,23 C 473.3,23 472.9,22.8 472.5, 23 C 472.1,23.2 471.7,23.2 471.5, 24 C 471.3,24.8 471.5,25 471.5, 27 C 471.5,29 471.5,32 471.5, 34 C 471.5,36 471.5,35.4 471.5, 37 C 471.5,38.6 471.5,39.8 471.5, 42 C 471.5,44.2 471.5,45.8 471.5, 48 C 471.5,50.2 471.5,50.8 471.5, 53 C 471.5,55.2 471.5,57.2 471.5, 59 C 471.5,60.8 471.5,60.8 471.5, 62 C 471.5,63.2 471.5,64.2 471.5, 65 C 471.5,65.8 471.5,65.6 471.5, 66 C 471.5,66.4 471.5,66.8 471.5, 67"
		      fill="none"
		      stroke-linecap="round"
		      stroke="black"
		      stroke-width="2"/>
		<path id="react-sketch-canvas__4"
		      d="M 481.5,22 C 481.5,22.4 481.5,23.4 481.5, 24 C 481.5,24.6 481.5,24.2 481.5, 25 C 481.5,25.8 481.5,26.4 481.5, 28 C 481.5,29.6 481.5,30.8 481.5, 33 C 481.5,35.2 481.5,37.4 481.5, 39 C 481.5,40.6 481.7,39.2 481.5, 41 C 481.3,42.8 480.9,45.8 480.5, 48 C 480.1,50.2 480.1,50 479.5, 52 C 478.9,54 477.9,56.4 477.5, 58 C 477.1,59.6 477.5,59.2 477.5, 60 C 477.5,60.8 477.5,61.4 477.5, 62 C 477.5,62.6 477.5,62.4 477.5, 63 C 477.5,63.6 477.5,64.4 477.5, 65 C 477.5,65.6 477.5,65.6 477.5, 66 C 477.5,66.4 477.5,66.4 477.5, 67 C 477.5,67.6 477.7,68.4 477.5, 69 C 477.3,69.6 476.7,69.6 476.5, 70 C 476.3,70.4 476.5,70.8 476.5, 71"
		      fill="none"
		      stroke-linecap="round"
		      stroke="black"
		      stroke-width="2"/>
		<path id="react-sketch-canvas__5"
		      d="M 465.5,49 C 465.7,49 466.1,49 466.5, 49 C 466.9,49 466.9,49 467.5, 49 C 468.1,49 468.9,49 469.5, 49 C 470.1,49 470.1,49 470.5, 49 C 470.9,49 471.1,49 471.5, 49 C 471.9,49 471.9,49 472.5, 49 C 473.1,49 473.9,49 474.5, 49 C 475.1,49 475.1,49 475.5, 49 C 475.9,49 476.1,49 476.5, 49 C 476.9,49 477.3,48.8 477.5, 49 C 477.7,49.2 477.3,49.8 477.5, 50 C 477.7,50.2 477.9,50 478.5, 50 C 479.1,50 479.9,50 480.5, 50 C 481.1,50 481.1,50 481.5, 50 C 481.9,50 482.1,50 482.5, 50 C 482.9,50 482.9,49.8 483.5, 50 C 484.1,50.2 485.1,50.8 485.5, 51"
		      fill="none"
		      stroke-linecap="round"
		      stroke="black"
		      stroke-width="2"/>
		<path id="react-sketch-canvas__6"
		      d="M 500.5,51 C 500.1,51 499.1,51.2 498.5, 51 C 497.9,50.8 497.9,50.2 497.5, 50 C 497.1,49.8 497.1,50 496.5, 50 C 495.9,50 495.1,50 494.5, 50 C 493.9,50 493.7,49.8 493.5, 50 C 493.3,50.2 493.7,50.6 493.5, 51 C 493.3,51.4 492.7,51.6 492.5, 52 C 492.3,52.4 492.9,52.4 492.5, 53 C 492.1,53.6 491.1,54.4 490.5, 55 C 489.9,55.6 489.7,55.6 489.5, 56 C 489.3,56.4 489.5,56.4 489.5, 57 C 489.5,57.6 489.5,58.4 489.5, 59 C 489.5,59.6 489.7,59.6 489.5, 60 C 489.3,60.4 488.7,60.6 488.5, 61 C 488.3,61.4 488.5,61.4 488.5, 62 C 488.5,62.6 488.5,63.4 488.5, 64 C 488.5,64.6 488.5,64.6 488.5, 65 C 488.5,65.4 488.5,65.4 488.5, 66 C 488.5,66.6 488.5,67.4 488.5, 68 C 488.5,68.6 488.3,68.4 488.5, 69 C 488.7,69.6 488.7,70.6 489.5, 71 C 490.3,71.4 491.7,71 492.5, 71 C 493.3,71 493.1,71 493.5, 71 C 493.9,71 494.1,71 494.5, 71 C 494.9,71 494.9,71 495.5, 71 C 496.1,71 496.7,71 497.5, 71 C 498.3,71 499.1,71.2 499.5, 71 C 499.9,70.8 499.5,70.4 499.5, 70 C 499.5,69.6 499.5,69.6 499.5, 69 C 499.5,68.4 499.3,67.8 499.5, 67 C 499.7,66.2 500.3,65.8 500.5, 65 C 500.7,64.2 500.5,63.6 500.5, 63 C 500.5,62.4 500.5,62.4 500.5, 62 C 500.5,61.6 500.5,61.4 500.5, 61 C 500.5,60.6 500.5,60.6 500.5, 60 C 500.5,59.4 500.5,58.8 500.5, 58 C 500.5,57.2 500.5,56.8 500.5, 56 C 500.5,55.2 500.5,54.6 500.5, 54 C 500.5,53.4 500.5,53.4 500.5, 53 C 500.5,52.6 500.5,52.4 500.5, 52 C 500.5,51.6 500.5,51.4 500.5, 51 C 500.5,50.6 500.5,50.4 500.5, 50 C 500.5,49.6 500.5,49 500.5, 49 C 500.5,49 500.5,49.6 500.5, 50 C 500.5,50.4 500.5,50.6 500.5, 51 C 500.5,51.4 500.5,51.4 500.5, 52 C 500.5,52.6 500.5,53.4 500.5, 54 C 500.5,54.6 500.5,54.2 500.5, 55 C 500.5,55.8 500.5,56.8 500.5, 58 C 500.5,59.2 500.5,59.8 500.5, 61 C 500.5,62.2 500.5,63.2 500.5, 64 C 500.5,64.8 500.5,64.2 500.5, 65 C 500.5,65.8 500.3,67.2 500.5, 68 C 500.7,68.8 501.3,68.4 501.5, 69 C 501.7,69.6 501.5,70.2 501.5, 71 C 501.5,71.8 501.3,72.4 501.5, 73 C 501.7,73.6 501.9,73.6 502.5, 74 C 503.1,74.4 503.9,74.8 504.5, 75 C 505.1,75.2 505.1,75 505.5, 75 C 505.9,75 506.3,75 506.5, 75"
		      fill="none"
		      stroke-linecap="round"
		      stroke="black"
		      stroke-width="2"/>
		<path id="react-sketch-canvas__7"
		      d="M 516.5,23 C 516.5,23.6 516.5,24.8 516.5, 26 C 516.5,27.2 516.5,28.2 516.5, 29 C 516.5,29.8 516.5,29.2 516.5, 30 C 516.5,30.8 516.5,31.4 516.5, 33 C 516.5,34.6 516.5,36 516.5, 38 C 516.5,40 516.5,41.4 516.5, 43 C 516.5,44.6 516.5,44.8 516.5, 46 C 516.5,47.2 516.5,47.8 516.5, 49 C 516.5,50.2 516.7,50.6 516.5, 52 C 516.3,53.4 515.7,54.6 515.5, 56 C 515.3,57.4 515.7,57.8 515.5, 59 C 515.3,60.2 514.7,60.8 514.5, 62 C 514.3,63.2 514.5,64.2 514.5, 65 C 514.5,65.8 514.5,65.2 514.5, 66 C 514.5,66.8 514.5,68.2 514.5, 69 C 514.5,69.8 514.5,69.4 514.5, 70 C 514.5,70.6 514.5,71.4 514.5, 72 C 514.5,72.6 514.5,72.6 514.5, 73 C 514.5,73.4 514.5,73.4 514.5, 74 C 514.5,74.6 514.5,75.4 514.5, 76 C 514.5,76.6 514.5,76.8 514.5, 77"
		      fill="none"
		      stroke-linecap="round"
		      stroke="black"
		      stroke-width="2"/>
		<path id="react-sketch-canvas__8"
		      d="M 527.5,19 C 527.5,19.4 527.5,19.6 527.5, 21 C 527.5,22.4 527.5,24 527.5, 26 C 527.5,28 527.5,29.4 527.5, 31 C 527.5,32.6 527.5,32.8 527.5, 34 C 527.5,35.2 527.5,35.8 527.5, 37 C 527.5,38.2 527.5,38.8 527.5, 40 C 527.5,41.2 527.5,42.2 527.5, 43 C 527.5,43.8 527.5,43.2 527.5, 44 C 527.5,44.8 527.5,45.8 527.5, 47 C 527.5,48.2 527.5,48.8 527.5, 50 C 527.5,51.2 527.5,51.8 527.5, 53 C 527.5,54.2 527.5,55 527.5, 56 C 527.5,57 527.5,57.4 527.5, 58 C 527.5,58.6 527.5,58.6 527.5, 59 C 527.5,59.4 527.5,59.6 527.5, 60 C 527.5,60.4 527.5,60.4 527.5, 61 C 527.5,61.6 527.5,62.4 527.5, 63 C 527.5,63.6 527.5,63.6 527.5, 64 C 527.5,64.4 527.5,64.4 527.5, 65 C 527.5,65.6 527.5,66.4 527.5, 67 C 527.5,67.6 527.5,67.4 527.5, 68 C 527.5,68.6 527.5,69.2 527.5, 70 C 527.5,70.8 527.5,71.4 527.5, 72 C 527.5,72.6 527.5,72.6 527.5, 73 C 527.5,73.4 527.5,73.4 527.5, 74 C 527.5,74.6 527.5,75.4 527.5, 76 C 527.5,76.6 527.5,76.6 527.5, 77 C 527.5,77.4 527.5,77.8 527.5, 78"
		      fill="none"
		      stroke-linecap="round"
		      stroke="black"
		      stroke-width="2"/>
		<path id="react-sketch-canvas__9"
		      d="M 551.5,53 C 551.3,53 550.9,53 550.5, 53 C 550.1,53 550.1,53 549.5, 53 C 548.9,53 548.1,52.8 547.5, 53 C 546.9,53.2 546.9,53.8 546.5, 54 C 546.1,54.2 545.9,53.6 545.5, 54 C 545.1,54.4 544.9,55.2 544.5, 56 C 544.1,56.8 544.1,57.2 543.5, 58 C 542.9,58.8 541.9,59.4 541.5, 60 C 541.1,60.6 541.5,60.6 541.5, 61 C 541.5,61.4 541.5,61.4 541.5, 62 C 541.5,62.6 541.7,63.4 541.5, 64 C 541.3,64.6 540.7,64.6 540.5, 65 C 540.3,65.4 540.5,65.6 540.5, 66 C 540.5,66.4 540.5,66.6 540.5, 67 C 540.5,67.4 540.1,67.6 540.5, 68 C 540.9,68.4 541.9,68.6 542.5, 69 C 543.1,69.4 542.9,69.6 543.5, 70 C 544.1,70.4 545.1,70.6 545.5, 71 C 545.9,71.4 545.3,71.6 545.5, 72 C 545.7,72.4 546.1,72.8 546.5, 73 C 546.9,73.2 547.1,72.8 547.5, 73 C 547.9,73.2 548.1,73.8 548.5, 74 C 548.9,74.2 549.1,73.8 549.5, 74 C 549.9,74.2 550.1,74.8 550.5, 75 C 550.9,75.2 551.1,75 551.5, 75 C 551.9,75 552.1,75 552.5, 75 C 552.9,75 553.3,75.2 553.5, 75 C 553.7,74.8 553.5,74.4 553.5, 74 C 553.5,73.6 553.5,73.4 553.5, 73 C 553.5,72.6 553.5,72.4 553.5, 72 C 553.5,71.6 553.3,71.2 553.5, 71 C 553.7,70.8 554.3,71.4 554.5, 71 C 554.7,70.6 554.5,69.6 554.5, 69 C 554.5,68.4 554.5,68.4 554.5, 68 C 554.5,67.6 554.5,67.4 554.5, 67 C 554.5,66.6 554.7,66.8 554.5, 66 C 554.3,65.2 553.9,63.6 553.5, 63 C 553.1,62.4 552.7,63.2 552.5, 63 C 552.3,62.8 552.5,62.6 552.5, 62 C 552.5,61.4 552.5,60.6 552.5, 60 C 552.5,59.4 552.5,59.4 552.5, 59 C 552.5,58.6 552.5,58.6 552.5, 58 C 552.5,57.4 552.5,56.6 552.5, 56 C 552.5,55.4 552.5,55.8 552.5, 55 C 552.5,54.2 552.5,52.6 552.5, 52"
		      fill="none"
		      stroke-linecap="round"
		      stroke="black"
		      stroke-width="2"/>
	</g>
</svg>