<svg version="1.1"
     baseProfile="full"
     xmlns="http://www.w3.org/2000/svg"
     xmlns:xlink="http://www.w3.org/1999/xlink"
     style="width:100%;height:100%"
     id="react-sketch-canvas"
     viewBox="0 0 297 210"
     width="297mm"
     height="210mm">
	<g id="react-sketch-canvas__stroke-group-0" transform="scale(0.3131313131313131) translate(325.74193548387103 437.5161290322581)"
	   mask="url(#react-sketch-canvas__eraser-mask-0)">
		<path id="react-sketch-canvas__0"
		      d="M 19.5,29 C 19.7,29 20.3,28.6 20.5, 29 C 20.7,29.4 20.5,30.2 20.5, 31 C 20.5,31.8 20.3,32.4 20.5, 33 C 20.7,33.6 21.3,33.2 21.5, 34 C 21.7,34.8 21.5,36.2 21.5, 37 C 21.5,37.8 21.5,37.4 21.5, 38 C 21.5,38.6 21.5,39.2 21.5, 40 C 21.5,40.8 21.5,40.4 21.5, 42 C 21.5,43.6 21.5,46.6 21.5, 48 C 21.5,49.4 21.5,48.2 21.5, 49 C 21.5,49.8 21.5,51.2 21.5, 52 C 21.5,52.8 21.5,52.6 21.5, 53 C 21.5,53.4 21.5,53.4 21.5, 54 C 21.5,54.6 21.5,55.4 21.5, 56 C 21.5,56.6 21.5,56.6 21.5, 57 C 21.5,57.4 21.5,57.4 21.5, 58 C 21.5,58.6 21.5,59.4 21.5, 60 C 21.5,60.6 21.5,60.8 21.5, 61"
		      fill="none"
		      stroke-linecap="round"
		      stroke="black"
		      stroke-width="2"/>
		<path id="react-sketch-canvas__1"
		      d="M 23.5,26 C 23.9,26 24.7,26 25.5, 26 C 26.3,26 26.7,26 27.5, 26 C 28.3,26 28.9,26 29.5, 26 C 30.1,26 30.1,26 30.5, 26 C 30.9,26 30.7,26 31.5, 26 C 32.3,26 33.5,26 34.5, 26 C 35.5,26 35.5,26 36.5, 26 C 37.5,26 38.3,26 39.5, 26 C 40.7,26 40.9,26 42.5, 26 C 44.1,26 45.9,26 47.5, 26 C 49.1,26 48.9,26 50.5, 26 C 52.1,26 53.5,26 55.5, 26 C 57.5,26 58.3,25.8 60.5, 26 C 62.7,26.2 64.3,26.8 66.5, 27 C 68.7,27.2 68.3,27 71.5, 27 C 74.7,27 77.7,27 82.5, 27 C 87.3,27 90.9,27 95.5, 27 C 100.1,27 102.1,27.2 105.5, 27 C 108.9,26.8 110.5,26.6 112.5, 26 C 114.5,25.4 114.7,24.6 115.5, 24 C 116.3,23.4 115.9,23.2 116.5, 23 C 117.1,22.8 117.9,23 118.5, 23 C 119.1,23 119.3,23 119.5, 23"
		      fill="none"
		      stroke-linecap="round"
		      stroke="black"
		      stroke-width="2"/>
		<path id="react-sketch-canvas__2"
		      d="M 202.5,190 C 202.9,190.2 203.5,190.8 204.5, 191 C 205.5,191.2 205.9,191 207.5, 191 C 209.1,191 210.9,191 212.5, 191 C 214.1,191 214.1,190.6 215.5, 191 C 216.9,191.4 217.9,192.6 219.5, 193 C 221.1,193.4 221.7,193 223.5, 193 C 225.3,193 226.5,193 228.5, 193 C 230.5,193 231.5,193 233.5, 193 C 235.5,193 236.7,193 238.5, 193 C 240.3,193 240.5,193 242.5, 193 C 244.5,193 246.7,193 248.5, 193 C 250.3,193 249.9,193 251.5, 193 C 253.1,193 254.5,193 256.5, 193 C 258.5,193 259.9,193 261.5, 193 C 263.1,193 263.7,193 264.5, 193 C 265.3,193 264.9,193 265.5, 193 C 266.1,193 266.9,193 267.5, 193 C 268.1,193 267.9,192.8 268.5, 193 C 269.1,193.2 269.7,193.4 270.5, 194 C 271.3,194.6 271.9,195.6 272.5, 196 C 273.1,196.4 273.1,195.8 273.5, 196 C 273.9,196.2 274.5,196.8 274.5, 197 C 274.5,197.2 273.7,197.2 273.5, 197 C 273.3,196.8 273.5,196.4 273.5, 196 C 273.5,195.6 273.5,195.6 273.5, 195 C 273.5,194.4 273.5,194 273.5, 193 C 273.5,192 273.5,191.2 273.5, 190 C 273.5,188.8 273.5,187.8 273.5, 187 C 273.5,186.2 273.5,186.8 273.5, 186 C 273.5,185.2 273.5,184.6 273.5, 183 C 273.5,181.4 273.5,179.6 273.5, 178 C 273.5,176.4 273.5,176.2 273.5, 175 C 273.5,173.8 273.5,172.8 273.5, 172 C 273.5,171.2 273.5,171.8 273.5, 171 C 273.5,170.2 273.5,169.2 273.5, 168 C 273.5,166.8 273.3,166.2 273.5, 165 C 273.7,163.8 274.3,163 274.5, 162 C 274.7,161 274.5,161 274.5, 160 C 274.5,159 274.5,157.8 274.5, 157 C 274.5,156.2 274.5,156.4 274.5, 156 C 274.5,155.6 274.5,155.4 274.5, 155 C 274.5,154.6 274.5,154.8 274.5, 154 C 274.5,153.2 274.3,152 274.5, 151 C 274.7,150 275.3,149.6 275.5, 149 C 275.7,148.4 275.5,148.8 275.5, 148 C 275.5,147.2 275.5,145.8 275.5, 145 C 275.5,144.2 275.5,144.6 275.5, 144 C 275.5,143.4 275.5,142.6 275.5, 142 C 275.5,141.4 275.5,141.2 275.5, 141"
		      fill="none"
		      stroke-linecap="round"
		      stroke="black"
		      stroke-width="2"/>
		<path id="react-sketch-canvas__3"
		      d="M 32.5,148 C 32.5,148 32.3,148.2 32.5, 148 C 32.7,147.8 33.1,147.2 33.5, 147 C 33.9,146.8 34.1,147.2 34.5, 147 C 34.9,146.8 35.1,146.2 35.5, 146 C 35.9,145.8 36.3,146.2 36.5, 146 C 36.7,145.8 36.3,145.4 36.5, 145 C 36.7,144.6 37.1,144.2 37.5, 144 C 37.9,143.8 38.1,144.2 38.5, 144 C 38.9,143.8 39.1,143.2 39.5, 143 C 39.9,142.8 39.9,143 40.5, 143 C 41.1,143 41.9,143 42.5, 143 C 43.1,143 43.1,143 43.5, 143 C 43.9,143 44.1,143 44.5, 143 C 44.9,143 44.9,143 45.5, 143 C 46.1,143 46.9,143 47.5, 143 C 48.1,143 48.1,143 48.5, 143 C 48.9,143 49.1,142.8 49.5, 143 C 49.9,143.2 50.1,143.2 50.5, 144 C 50.9,144.8 51.3,145.8 51.5, 147 C 51.7,148.2 51.5,149 51.5, 150 C 51.5,151 51.5,151.2 51.5, 152 C 51.5,152.8 51.5,153.2 51.5, 154 C 51.5,154.8 51.5,155.4 51.5, 156 C 51.5,156.6 51.5,156.6 51.5, 157 C 51.5,157.4 51.5,157.6 51.5, 158 C 51.5,158.4 51.5,158.4 51.5, 159 C 51.5,159.6 51.7,160.6 51.5, 161 C 51.3,161.4 50.9,161 50.5, 161 C 50.1,161 49.9,161 49.5, 161 C 49.1,161 48.9,160.8 48.5, 161 C 48.1,161.2 47.7,161.6 47.5, 162 C 47.3,162.4 47.7,162.8 47.5, 163 C 47.3,163.2 47.3,163 46.5, 163 C 45.7,163 44.5,163 43.5, 163 C 42.5,163 42.1,163 41.5, 163 C 40.9,163 40.9,163 40.5, 163 C 40.1,163 39.9,163 39.5, 163 C 39.1,163 39.1,163 38.5, 163 C 37.9,163 37.1,163 36.5, 163 C 35.9,163 35.9,163 35.5, 163 C 35.1,163 34.9,163 34.5, 163 C 34.1,163 34.1,163 33.5, 163 C 32.9,163 31.9,162.8 31.5, 163 C 31.1,163.2 31.5,163.4 31.5, 164 C 31.5,164.6 31.5,165.4 31.5, 166 C 31.5,166.6 31.5,166.6 31.5, 167 C 31.5,167.4 31.5,167.6 31.5, 168 C 31.5,168.4 31.5,168.4 31.5, 169 C 31.5,169.6 31.5,170.4 31.5, 171 C 31.5,171.6 31.5,171.6 31.5, 172 C 31.5,172.4 31.3,172.6 31.5, 173 C 31.7,173.4 31.9,173.6 32.5, 174 C 33.1,174.4 33.7,174.6 34.5, 175 C 35.3,175.4 35.9,175.8 36.5, 176 C 37.1,176.2 37.3,175.8 37.5, 176 C 37.7,176.2 37.3,176.6 37.5, 177 C 37.7,177.4 38.1,177.8 38.5, 178 C 38.9,178.2 39.1,178 39.5, 178 C 39.9,178 40.1,178 40.5, 178 C 40.9,178 41.1,177.8 41.5, 178 C 41.9,178.2 42.1,178.8 42.5, 179 C 42.9,179.2 42.7,179 43.5, 179 C 44.3,179 45.7,178.8 46.5, 179 C 47.3,179.2 46.7,179.4 47.5, 180 C 48.3,180.6 49.5,181.6 50.5, 182 C 51.5,182.4 51.9,182 52.5, 182 C 53.1,182 53.1,182 53.5, 182 C 53.9,182 54.1,182.2 54.5, 182 C 54.9,181.8 55.3,181.4 55.5, 181 C 55.7,180.6 55.5,180.4 55.5, 180 C 55.5,179.6 55.5,179.6 55.5, 179 C 55.5,178.4 55.5,177.8 55.5, 177 C 55.5,176.2 55.3,175.6 55.5, 175 C 55.7,174.4 56.3,174.4 56.5, 174 C 56.7,173.6 56.3,173.4 56.5, 173 C 56.7,172.6 57.3,172.4 57.5, 172 C 57.7,171.6 57.5,171.6 57.5, 171 C 57.5,170.4 57.5,169.6 57.5, 169 C 57.5,168.4 57.5,168.4 57.5, 168 C 57.5,167.6 57.5,167.2 57.5, 167"
		      fill="none"
		      stroke-linecap="round"
		      stroke="black"
		      stroke-width="2"/>
		<path id="react-sketch-canvas__4"
		      d="M 40.5,194 C 40.3,194 40.1,194 39.5, 194 C 38.9,194 38.1,194 37.5, 194 C 36.9,194 36.7,193.8 36.5, 194 C 36.3,194.2 36.5,194.4 36.5, 195 C 36.5,195.6 36.3,196.6 36.5, 197 C 36.7,197.4 37.1,196.6 37.5, 197 C 37.9,197.4 38.1,198.2 38.5, 199 C 38.9,199.8 39.1,200.6 39.5, 201 C 39.9,201.4 40.1,201 40.5, 201 C 40.9,201 41.1,200.8 41.5, 201 C 41.9,201.2 42.1,201.8 42.5, 202 C 42.9,202.2 43.1,202 43.5, 202 C 43.9,202 44.1,202 44.5, 202 C 44.9,202 45.1,202 45.5, 202 C 45.9,202 46.3,202.2 46.5, 202 C 46.7,201.8 46.7,201.4 46.5, 201 C 46.3,200.6 45.7,200.6 45.5, 200 C 45.3,199.4 45.7,198.6 45.5, 198 C 45.3,197.4 44.7,197.4 44.5, 197 C 44.3,196.6 44.7,196.2 44.5, 196 C 44.3,195.8 43.9,196.2 43.5, 196 C 43.1,195.8 42.9,195.4 42.5, 195 C 42.1,194.6 41.9,194.2 41.5, 194 C 41.1,193.8 40.9,194 40.5, 194 C 40.1,194 39.7,194 39.5, 194"
		      fill="none"
		      stroke-linecap="round"
		      stroke="black"
		      stroke-width="2"/>
	</g>
</svg>