<svg version="1.1"
     baseProfile="full"
     xmlns="http://www.w3.org/2000/svg"
     xmlns:xlink="http://www.w3.org/1999/xlink"
     style="width:100%;height:100%"
     id="react-sketch-canvas"
     viewBox="0 0 297 210"
     width="297"
     height="210">
	<g id="react-sketch-canvas__eraser-stroke-group"
	   display="none">
		<rect id="react-sketch-canvas__mask-background"
		      x="0"
		      y="0"
		      width="100%"
		      height="100%"
		      fill="white"/>
	</g>
	<defs/>
	<g id="react-sketch-canvas__canvas-background-group">
		<rect id="react-sketch-canvas__canvas-background"
		      x="0"
		      y="0"
		      width="100%"
		      height="100%"
		      fill="white"/>
	</g>
	<g id="react-sketch-canvas__stroke-group-0"
	   mask="url(#react-sketch-canvas__eraser-mask-0)">
		<path id="react-sketch-canvas__0"
		      d="M 26.5,19 C 26.5,19.2 26.7,19.8 26.5, 20 C 26.3,20.2 25.9,20 25.5, 20 C 25.1,20 25.1,20.2 24.5, 20 C 23.9,19.8 23.1,19.2 22.5, 19 C 21.9,18.8 21.9,19.2 21.5, 19 C 21.1,18.8 20.9,18.2 20.5, 18 C 20.1,17.8 19.9,18 19.5, 18 C 19.1,18 18.9,18.4 18.5, 18 C 18.1,17.6 18.1,16.6 17.5, 16 C 16.9,15.4 16.1,15.2 15.5, 15 C 14.9,14.8 15.1,15 14.5, 15 C 13.9,15 13.3,15.2 12.5, 15 C 11.7,14.8 11.3,14.4 10.5, 14 C 9.7,13.6 9.1,13.2 8.5, 13 C 7.9,12.8 7.7,13.2 7.5, 13 C 7.3,12.8 7.7,12.2 7.5, 12 C 7.3,11.8 6.9,12 6.5, 12 C 6.1,12 6.1,12.2 5.5, 12 C 4.9,11.8 4.1,11.4 3.5, 11 C 2.9,10.6 2.9,10.4 2.5, 10 C 2.1,9.6 1.7000000000000002,9.6 1.5, 9 C 1.2999999999999998,8.4 1.5,7.6 1.5, 7 C 1.5,6.4 1.3,6.6000000000000005 1.5, 6 C 1.7,5.4 2.3000000000000003,4.8 2.5, 4 C 2.6999999999999997,3.2 2.5,2.6 2.5, 2 C 2.5,1.4 2.3,1.2 2.5, 1 C 2.7,0.8 3.1,1 3.5, 1 C 3.9,1 4.1,1 4.5, 1 C 4.9,1 4.9,1 5.5, 1 C 6.1,1 6.9,1 7.5, 1 C 8.1,1 8.1,1 8.5, 1 C 8.9,1 8.9,1 9.5, 1 C 10.1,1 10.9,1 11.5, 1 C 12.1,1 12.1,1 12.5, 1 C 12.9,1 13.1,1 13.5, 1 C 13.9,1 13.9,1 14.5, 1 C 15.1,1 15.9,1 16.5, 1 C 17.1,1 17.1,1 17.5, 1 C 17.9,1 18.1,0.8 18.5, 1 C 18.9,1.2 19.3,1.8 19.5, 2"
		      fill="none"
		      stroke-linecap="round"
		      stroke="black"
		      stroke-width="2"/>
		<path id="react-sketch-canvas__1"
		      d="M 2.5,3 C 2.5,3.4 2.5,4.2 2.5, 5 C 2.5,5.8 2.5,6 2.5, 7 C 2.5,8 2.4999999999999996,8.2 2.5, 10 C 2.5,11.8 2.4999999999999996,14 2.5, 16 C 2.5,18 2.4999999999999996,18.4 2.5, 20 C 2.5,21.6 2.4999999999999996,22.2 2.5, 24 C 2.5,25.8 2.4999999999999996,27.6 2.5, 29 C 2.5,30.4 2.0999999999999996,30 2.5, 31 C 2.9,32 4.1,33.2 4.5, 34 C 4.9,34.8 4.5,34.8 4.5, 35"
		      fill="none"
		      stroke-linecap="round"
		      stroke="black"
		      stroke-width="2"/>
		<path id="react-sketch-canvas__2"
		      d="M 269.5,205 C 269.9,205 270.3,205 271.5, 205 C 272.7,205 274.1,205 275.5, 205 C 276.9,205 277.5,205 278.5, 205 C 279.5,205 279.5,205 280.5, 205 C 281.5,205 282.7,205 283.5, 205 C 284.3,205 284.1,205 284.5, 205 C 284.9,205 284.9,205 285.5, 205 C 286.1,205 286.9,205 287.5, 205 C 288.1,205 288.1,205 288.5, 205 C 288.9,205 289.1,205 289.5, 205 C 289.9,205 289.9,205 290.5, 205 C 291.1,205 291.9,205 292.5, 205 C 293.1,205 293.1,205 293.5, 205 C 293.9,205 294.3,205.2 294.5, 205 C 294.7,204.8 294.5,204.6 294.5, 204 C 294.5,203.4 294.5,202.6 294.5, 202 C 294.5,201.4 294.5,201.4 294.5, 201 C 294.5,200.6 294.5,200.4 294.5, 200 C 294.5,199.6 294.5,199.6 294.5, 199 C 294.5,198.4 294.5,197.6 294.5, 197 C 294.5,196.4 294.5,196.4 294.5, 196 C 294.5,195.6 294.5,195.4 294.5, 195 C 294.5,194.6 294.5,194.6 294.5, 194 C 294.5,193.4 294.5,192.6 294.5, 192 C 294.5,191.4 294.5,191.4 294.5, 191 C 294.5,190.6 294.5,190.4 294.5, 190 C 294.5,189.6 294.3,189.2 294.5, 189 C 294.7,188.8 295.3,189.4 295.5, 189 C 295.7,188.6 295.5,187.6 295.5, 187 C 295.5,186.4 295.5,186.4 295.5, 186 C 295.5,185.6 295.5,185.6 295.5, 185 C 295.5,184.4 295.5,183.6 295.5, 183 C 295.5,182.4 295.5,182.4 295.5, 182 C 295.5,181.6 295.5,181.4 295.5, 181 C 295.5,180.6 295.5,180.6 295.5, 180 C 295.5,179.4 295.5,178.4 295.5, 178"
		      fill="none"
		      stroke-linecap="round"
		      stroke="black"
		      stroke-width="2"/>
		<path id="react-sketch-canvas__3"
		      d="M 294.5,201 C 294.5,201.2 294.7,201.8 294.5, 202 C 294.3,202.2 294.1,202 293.5, 202 C 292.9,202 292.1,202 291.5, 202 C 290.9,202 290.9,202 290.5, 202 C 290.1,202 289.9,202.4 289.5, 202 C 289.1,201.6 289.9,200.8 288.5, 200 C 287.1,199.2 284.3,198.8 282.5, 198 C 280.7,197.2 280.7,197 279.5, 196 C 278.3,195 277.5,194 276.5, 193 C 275.5,192 275.5,192 274.5, 191 C 273.5,190 272.3,188.8 271.5, 188 C 270.7,187.2 270.9,187.4 270.5, 187 C 270.1,186.6 269.9,186.4 269.5, 186 C 269.1,185.6 268.9,185.4 268.5, 185 C 268.1,184.6 267.7,184.4 267.5, 184 C 267.3,183.6 267.9,183.6 267.5, 183 C 267.1,182.4 265.9,181.6 265.5, 181 C 265.1,180.4 265.7,180.8 265.5, 180 C 265.3,179.2 264.9,178 264.5, 177 C 264.1,176 263.9,175.6 263.5, 175 C 263.1,174.4 262.9,174.4 262.5, 174 C 262.1,173.6 261.9,173.2 261.5, 173 C 261.1,172.8 260.9,173.2 260.5, 173 C 260.1,172.8 260.3,172.6 259.5, 172 C 258.7,171.4 257.3,170.4 256.5, 170 C 255.7,169.6 256.1,170.2 255.5, 170 C 254.9,169.8 254.1,169.2 253.5, 169 C 252.9,168.8 252.9,169.2 252.5, 169 C 252.1,168.8 251.9,168.2 251.5, 168 C 251.1,167.8 250.7,168 250.5, 168"
		      fill="none"
		      stroke-linecap="round"
		      stroke="black"
		      stroke-width="2"/>
		<path id="react-sketch-canvas__4"
		      d="M 2.5,176 C 2.5,176.2 2.5,176.6 2.5, 177 C 2.5,177.4 2.5,177.4 2.5, 178 C 2.5,178.6 2.5,179.4 2.5, 180 C 2.5,180.6 2.5,180.6 2.5, 181 C 2.5,181.4 2.5,181.6 2.5, 182 C 2.5,182.4 2.5,182.4 2.5, 183 C 2.5,183.6 2.5,184.4 2.5, 185 C 2.5,185.6 2.5,185.6 2.5, 186 C 2.5,186.4 2.5,186.4 2.5, 187 C 2.5,187.6 2.5,188.4 2.5, 189 C 2.5,189.6 2.3,189.6 2.5, 190 C 2.7,190.4 3.3,190.6 3.5, 191 C 3.7,191.4 3.5,191.4 3.5, 192 C 3.5,192.6 3.3,193.2 3.5, 194 C 3.6999999999999997,194.8 4.3,195.2 4.5, 196 C 4.7,196.8 4.5,197.4 4.5, 198 C 4.5,198.6 4.5,198.6 4.5, 199 C 4.5,199.4 4.5,199.6 4.5, 200 C 4.5,200.4 4.5,200.4 4.5, 201 C 4.5,201.6 4.7,202.4 4.5, 203 C 4.3,203.6 3.9,203.6 3.5, 204 C 3.1,204.4 2.9,204.8 2.5, 205 C 2.1,205.2 1.9,205 1.5, 205 C 1.1,205 0.7,204.8 0.5, 205 C 0.3,205.2 0.29999999999999993,205.8 0.5, 206 C 0.7000000000000001,206.2 1.1,206 1.5, 206 C 1.9,206 2.1,206 2.5, 206 C 2.9,206 2.9,206 3.5, 206 C 4.1,206 4.9,206 5.5, 206 C 6.1,206 5.7,206 6.5, 206 C 7.3,206 8.3,206 9.5, 206 C 10.7,206 11.7,206 12.5, 206 C 13.3,206 13.1,206 13.5, 206 C 13.9,206 14.1,206 14.5, 206 C 14.9,206 14.9,206 15.5, 206 C 16.1,206 16.7,206 17.5, 206 C 18.3,206 18.9,206 19.5, 206 C 20.1,206 19.9,206 20.5, 206 C 21.1,206 22.1,206 22.5, 206"
		      fill="none"
		      stroke-linecap="round"
		      stroke="black"
		      stroke-width="2"/>
		<path id="react-sketch-canvas__5"
		      d="M -0.5,204 C -0.3,204 -0.10000000000000009,204 0.5, 204 C 1.1,204 1.7,204.4 2.5, 204 C 3.3,203.6 3.9000000000000004,202.8 4.5, 202 C 5.1,201.2 4.7,201.2 5.5, 200 C 6.3,198.8 7.3,197.2 8.5, 196 C 9.7,194.8 10.5,195 11.5, 194 C 12.5,193 12.3,192.4 13.5, 191 C 14.7,189.6 15.3,188.4 17.5, 187 C 19.7,185.6 22.1,185.2 24.5, 184 C 26.9,182.8 27.1,182.2 29.5, 181 C 31.9,179.8 34.1,179.4 36.5, 178 C 38.9,176.6 39.3,175.4 41.5, 174 C 43.7,172.6 44.3,172.2 47.5, 171 C 50.7,169.8 55.1,168.8 57.5, 168 C 59.9,167.2 58.7,167.6 59.5, 167 C 60.3,166.4 61.1,165.4 61.5, 165"
		      fill="none"
		      stroke-linecap="round"
		      stroke="black"
		      stroke-width="2"/>
		<path id="react-sketch-canvas__6"
		      d="M 259.5,4 C 259.9,4 260.9,4 261.5, 4 C 262.1,4 262.1,4 262.5, 4 C 262.9,4 263.1,4 263.5, 4 C 263.9,4 263.9,4 264.5, 4 C 265.1,4 265.9,4 266.5, 4 C 267.1,4 267.1,4 267.5, 4 C 267.9,4 267.9,4 268.5, 4 C 269.1,4 269.9,4 270.5, 4 C 271.1,4 271.1,4 271.5, 4 C 271.9,4 272.1,4 272.5, 4 C 272.9,4 272.9,4 273.5, 4 C 274.1,4 274.9,4 275.5, 4 C 276.1,4 275.9,4 276.5, 4 C 277.1,4 277.7,4 278.5, 4 C 279.3,4 279.9,4 280.5, 4 C 281.1,4 281.1,4 281.5, 4 C 281.9,4 281.9,4 282.5, 4 C 283.1,4 283.9,4 284.5, 4 C 285.1,4 285.1,4 285.5, 4 C 285.9,4 286.1,4 286.5, 4 C 286.9,4 286.9,4 287.5, 4 C 288.1,4 288.9,4 289.5, 4 C 290.1,4 290.1,4 290.5, 4 C 290.9,4 290.9,4 291.5, 4 C 292.1,4 293.1,4.2 293.5, 4 C 293.9,3.8 293.3,3.2 293.5, 3 C 293.7,2.8 294.1,3 294.5, 3 C 294.9,3 295.1,3 295.5, 3 C 295.9,3 296.3,3 296.5, 3"
		      fill="none"
		      stroke-linecap="round"
		      stroke="black"
		      stroke-width="2"/>
		<path id="react-sketch-canvas__7"
		      d="M 292.5,22 C 292.5,21.6 292.5,20.6 292.5, 20 C 292.5,19.4 292.3,19.4 292.5, 19 C 292.7,18.6 293.3,18.6 293.5, 18 C 293.7,17.4 293.5,16.6 293.5, 16 C 293.5,15.4 293.5,15.4 293.5, 15 C 293.5,14.6 293.5,14.4 293.5, 14 C 293.5,13.6 293.5,13.6 293.5, 13 C 293.5,12.4 293.5,11.6 293.5, 11 C 293.5,10.4 293.5,10.4 293.5, 10 C 293.5,9.6 293.5,9.4 293.5, 9 C 293.5,8.6 293.5,8.6 293.5, 8 C 293.5,7.4 293.5,6.6 293.5, 6 C 293.5,5.4 293.7,5.4 293.5, 5 C 293.3,4.6 292.7,4.6 292.5, 4 C 292.3,3.4 292.5,2.4 292.5, 2"
		      fill="none"
		      stroke-linecap="round"
		      stroke="black"
		      stroke-width="2"/>
		<path id="react-sketch-canvas__8"
		      d="M 292.5,2 C 292.3,2 292.1,1.9999999999999998 291.5, 2 C 290.9,2 290.1,1.6 289.5, 2 C 288.9,2.4 289.5,3 288.5, 4 C 287.5,5 285.5,5.800000000000001 284.5, 7 C 283.5,8.2 284.3,8.4 283.5, 10 C 282.7,11.6 281.7,13.4 280.5, 15 C 279.3,16.6 278.7,17 277.5, 18 C 276.3,19 275.9,18.6 274.5, 20 C 273.1,21.4 271.5,23.4 270.5, 25 C 269.5,26.6 270.3,27 269.5, 28 C 268.7,29 267.7,29 266.5, 30 C 265.3,31 264.7,31.8 263.5, 33 C 262.3,34.2 261.7,34.8 260.5, 36 C 259.3,37.2 258.3,38.2 257.5, 39 C 256.7,39.8 256.9,39.6 256.5, 40 C 256.1,40.4 256.1,40.6 255.5, 41 C 254.9,41.4 254.1,41.4 253.5, 42 C 252.9,42.6 252.7,43.6 252.5, 44"
		      fill="none"
		      stroke-linecap="round"
		      stroke="black"
		      stroke-width="2"/>
	</g>
</svg>